<svg width="120" height="120" viewBox="0 0 120 120" fill="none" xmlns="http://www.w3.org/2000/svg">
<path d="M60 0C26.8628 0 0 26.8629 0 60C0 93.1371 26.8628 120 60 120C89.7301 120 114.41 98.3771 119.17 70H118.74C114.299 87.2523 98.6383 100 80 100C57.9087 100 40 82.0914 40 60C40 37.9086 57.9087 20 80 20C98.6383 20 114.299 32.7477 118.74 50H119.17C114.41 21.6229 89.7301 0 60 0Z" fill="#A4BCFD"/>
<path d="M0 60C0 26.8629 26.8629 0 60 0C89.73 0 114.41 21.6229 119.17 50H78.7398C74.2994 32.7477 58.6384 20 40 20C17.9086 20 0 37.9086 0 60Z" fill="#3538CD"/>
<path d="M0 60C0 93.1371 26.8629 120 60 120C89.73 120 114.41 98.3771 119.17 70H78.7398C74.2994 87.2523 58.6384 100 40 100C17.9086 100 0 82.0914 0 60Z" fill="#3538CD"/>
</svg>
