<?xml version="1.0" encoding="UTF-8"?>
<svg id="Layer_2" data-name="Layer 2" xmlns="http://www.w3.org/2000/svg" viewBox="0 0 88.64 88.69">
  <defs>
    <style>
      .cls-1 {
        fill: #fdfdfd;
      }

      .cls-1, .cls-2, .cls-3, .cls-4, .cls-5, .cls-6, .cls-7 {
        stroke-width: 0px;
      }

      .cls-2 {
        fill: #204671;
      }

      .cls-3 {
        fill: #a3d3fe;
      }

      .cls-4 {
        fill: #fdfdfe;
      }

      .cls-5 {
        fill: #214772;
      }

      .cls-6 {
        fill: #234973;
      }

      .cls-7 {
        fill: #234873;
      }
    </style>
  </defs>
  <g id="Layer_1-2" data-name="Layer 1">
    <g>
      <path class="cls-5" d="M14.37,63.12c0-2.43-.02-4.85.02-7.28.01-.63-.2-.94-.74-1.24-4.17-2.38-8.33-4.8-12.49-7.2-1.54-.89-1.54-1.87-.02-2.76,13.98-8.09,27.96-16.17,41.92-24.28.88-.51,1.59-.53,2.48-.02,13.94,8.09,27.9,16.16,41.85,24.23,1.68.97,1.67,1.91-.04,2.9-3.9,2.26-7.78,4.56-11.72,6.75-1.03.57-1.43,1.19-1.4,2.4.09,4.58.02,9.16.05,13.74,0,.93-.33,1.48-1.13,1.93-9.26,5.33-18.51,10.69-27.74,16.06-.76.44-1.39.46-2.16.01-9.29-5.4-18.59-10.78-27.9-16.15-.7-.4-1.01-.92-1-1.73.03-2.46.01-4.91.01-7.37ZM18.2,37.68c.24.17.33.24.43.3,8.4,4.86,16.8,9.73,25.21,14.56.27.15.8.09,1.1-.07,8.18-4.7,16.35-9.43,24.52-14.16.3-.17.59-.36.98-.59-.32-.21-.53-.37-.76-.5-8.19-4.74-16.39-9.48-24.58-14.24-.56-.33-.97-.34-1.53,0-5.98,3.49-11.99,6.95-17.98,10.42-2.42,1.4-4.85,2.81-7.38,4.27ZM45.65,56.54v28.69c.2-.09.31-.13.41-.19,8.4-4.86,16.8-9.71,25.18-14.59.27-.16.49-.65.49-.99.03-3.8.02-7.6.02-11.4v-1.52c-.4.22-.69.36-.96.52-3.7,2.13-7.4,4.26-11.08,6.41-.73.43-1.35.43-2.08,0-2.2-1.31-4.44-2.58-6.66-3.86-1.75-1.01-3.5-2.02-5.31-3.07ZM43.04,56.52c-.28.15-.43.24-.58.32-3.75,2.17-7.5,4.31-11.23,6.52-.88.52-1.6.54-2.48.01-3.62-2.15-7.27-4.24-10.91-6.34-.27-.16-.56-.3-.92-.49-.02.21-.03.31-.03.42,0,4.22.01,8.44-.02,12.66,0,.55.3.71.66.92,8.27,4.78,16.53,9.56,24.8,14.34.21.12.44.21.71.34v-28.72ZM3.89,45.96c.1.13.12.15.14.17,8.49,4.92,16.99,9.84,25.5,14.74.25.15.75.09,1.02-.06,2.34-1.31,4.66-2.67,6.98-4.02,1.38-.8,2.76-1.6,4.23-2.46-.32-.2-.53-.35-.76-.48-8.24-4.77-16.48-9.53-24.71-14.32-.52-.3-.88-.28-1.36.02-.93.59-1.91,1.11-2.86,1.67-2.71,1.57-5.41,3.13-8.18,4.74ZM84.84,46.01c-3.83-2.22-7.5-4.33-11.15-6.47-.51-.3-.86-.28-1.36.01-7.74,4.5-15.49,8.97-23.24,13.46-.72.41-1.43.84-2.18,1.28.14.11.2.17.27.21,3.67,2.12,7.34,4.24,10.99,6.38.5.3.82.09,1.21-.14,6.46-3.74,12.91-7.47,19.37-11.21,1.98-1.15,3.96-2.3,6.09-3.54Z"/>
      <path class="cls-6" d="M12.66,18.1c.48.2.77.29,1.03.43,3.62,2.08,7.23,4.17,10.83,6.27,1.07.62,1.23,1.78.3,2.27-.36.18-.98.2-1.33.01-3.76-2.12-7.5-4.3-11.23-6.47-.57-.33-.92-.87-.6-1.5.21-.42.69-.7,1-1.01Z"/>
      <path class="cls-7" d="M34.05,17.62c-.27.33-.49.85-.85.97-.41.13-.94-.08-1.4-.21-.16-.05-.26-.31-.37-.49-2.09-3.62-4.18-7.23-6.25-10.86-.48-.84-.36-1.57.29-1.97.69-.42,1.38-.17,1.9.73,2.07,3.59,4.14,7.19,6.2,10.78.16.28.27.59.47,1.05Z"/>
      <path class="cls-7" d="M63.9,5.97c-.23.53-.34.84-.5,1.12-2.05,3.57-4.1,7.14-6.16,10.7-.54.93-1.27,1.21-1.96.77-.67-.42-.74-1.1-.2-2.04,2.07-3.59,4.14-7.18,6.21-10.78.34-.6.82-1.06,1.51-.79.44.18.76.68,1.11,1.02Z"/>
      <path class="cls-7" d="M77.08,19.76c-.16.19-.39.65-.76.87-3.7,2.18-7.41,4.33-11.14,6.46-.72.41-1.43.21-1.79-.41-.36-.62-.18-1.34.53-1.75,3.73-2.18,7.47-4.35,11.22-6.49.91-.52,1.95.09,1.93,1.32Z"/>
      <path class="cls-2" d="M45.57,7.83c0,2.07,0,4.13,0,6.2,0,1.04-.46,1.61-1.26,1.61-.8,0-1.24-.58-1.24-1.63,0-4.13,0-8.26,0-12.39,0-1.04.47-1.62,1.26-1.61.79,0,1.24.59,1.25,1.63,0,2.07,0,4.13,0,6.2Z"/>
      <path class="cls-3" d="M18.2,37.68c2.53-1.47,4.96-2.87,7.38-4.27,6-3.47,12-6.93,17.98-10.42.57-.33.97-.32,1.53,0,8.18,4.76,16.38,9.49,24.58,14.24.22.13.43.29.76.5-.38.23-.68.41-.98.59-8.17,4.73-16.34,9.45-24.52,14.16-.29.17-.83.23-1.1.07-8.42-4.83-16.81-9.7-25.21-14.56-.1-.06-.19-.13-.43-.3Z"/>
      <path class="cls-3" d="M45.65,56.54c1.81,1.05,3.56,2.06,5.31,3.07,2.22,1.28,4.46,2.55,6.66,3.86.73.44,1.35.43,2.08,0,3.68-2.16,7.39-4.28,11.08-6.41.28-.16.56-.3.96-.52v1.52c0,3.8.01,7.6-.02,11.4,0,.34-.22.83-.49.99-8.38,4.88-16.78,9.74-25.18,14.59-.1.06-.21.1-.41.19v-28.69Z"/>
      <path class="cls-4" d="M43.04,56.52v28.72c-.27-.13-.5-.22-.71-.34-8.27-4.78-16.53-9.56-24.8-14.34-.36-.21-.66-.37-.66-.92.03-4.22.02-8.44.02-12.66,0-.11.02-.22.03-.42.36.19.64.33.92.49,3.64,2.11,7.3,4.2,10.91,6.34.89.53,1.6.51,2.48-.01,3.72-2.2,7.48-4.35,11.23-6.52.15-.09.3-.17.58-.32Z"/>
      <path class="cls-1" d="M3.89,45.96c2.77-1.61,5.48-3.17,8.18-4.74.96-.55,1.93-1.08,2.86-1.67.48-.3.84-.33,1.36-.02,8.23,4.79,16.47,9.55,24.71,14.32.23.13.44.28.76.48-1.47.85-2.85,1.65-4.23,2.46-2.32,1.35-4.64,2.7-6.98,4.02-.27.15-.77.21-1.02.06-8.51-4.89-17-9.82-25.5-14.74-.02-.01-.04-.04-.14-.17Z"/>
      <path class="cls-1" d="M84.84,46.01c-2.13,1.24-4.11,2.39-6.09,3.54-6.46,3.74-12.92,7.47-19.37,11.21-.39.23-.71.43-1.21.14-3.65-2.15-7.33-4.26-10.99-6.38-.07-.04-.13-.1-.27-.21.75-.44,1.46-.87,2.18-1.28,7.75-4.48,15.5-8.96,23.24-13.46.5-.29.85-.31,1.36-.01,3.65,2.15,7.32,4.25,11.15,6.47Z"/>
    </g>
  </g>
</svg>